<svg width="14" height="14" viewBox="0 0 14 14" fill="none" xmlns="http://www.w3.org/2000/svg">
<path d="M1.75 0.583984H8.9915L12.25 3.84248V6.41732H11.0833V5.25065H7.58333V1.75065H2.91667V12.2507H6.41667V13.4173H1.75V0.583984ZM8.75 1.99215V4.08398H10.8418L8.75 1.99215ZM10.5 8.45898C10.1464 8.45884 9.79874 8.55056 9.4912 8.72515C9.18367 8.89975 8.92675 9.15123 8.74563 9.45497C8.5645 9.75871 8.46538 10.1043 8.45796 10.4578C8.45055 10.8114 8.5351 11.1608 8.70333 11.4719L11.4713 8.70457C11.1729 8.54331 10.8391 8.45891 10.5 8.45898ZM12.2967 9.5294L9.52875 12.2967C9.91562 12.5065 10.3599 12.5856 10.7954 12.5223C11.2309 12.459 11.6343 12.2567 11.9455 11.9455C12.2566 11.6344 12.4589 11.231 12.5222 10.7955C12.5855 10.36 12.5064 9.91628 12.2967 9.5294ZM7.29167 10.5007C7.29167 10.0793 7.37465 9.66213 7.53589 9.27287C7.69712 8.88362 7.93344 8.52994 8.23137 8.23202C8.52929 7.93409 8.88297 7.69777 9.27222 7.53654C9.66148 7.3753 10.0787 7.29232 10.5 7.29232C10.9213 7.29232 11.3385 7.3753 11.7278 7.53654C12.117 7.69777 12.4707 7.93409 12.7686 8.23202C13.0666 8.52994 13.3029 8.88362 13.4641 9.27287C13.6253 9.66213 13.7083 10.0793 13.7083 10.5007C13.7083 11.3516 13.3703 12.1676 12.7686 12.7693C12.167 13.371 11.3509 13.709 10.5 13.709C9.6491 13.709 8.83304 13.371 8.23137 12.7693C7.62969 12.1676 7.29167 11.3516 7.29167 10.5007Z" fill="#2368AE"/>
</svg>
