<svg width="16" height="17" viewBox="0 0 16 17" fill="none" xmlns="http://www.w3.org/2000/svg">
<path d="M8 0.5C3.592 0.5 0 4.092 0 8.5C0 12.908 3.592 16.5 8 16.5C12.408 16.5 16 12.908 16 8.5C16 4.092 12.408 0.5 8 0.5ZM10.688 10.34C10.92 10.572 10.92 10.956 10.688 11.188C10.568 11.308 10.416 11.364 10.264 11.364C10.112 11.364 9.96 11.308 9.84 11.188L8 9.348L6.16 11.188C6.04 11.308 5.888 11.364 5.736 11.364C5.584 11.364 5.432 11.308 5.312 11.188C5.08 10.956 5.08 10.572 5.312 10.34L7.152 8.5L5.312 6.66C5.08 6.428 5.08 6.044 5.312 5.812C5.544 5.58 5.928 5.58 6.16 5.812L8 7.652L9.84 5.812C10.072 5.58 10.456 5.58 10.688 5.812C10.92 6.044 10.92 6.428 10.688 6.66L8.848 8.5L10.688 10.34Z" fill="#F96E6F"/>
</svg>
