<svg width="14" height="14" viewBox="0 0 14 14" fill="none" xmlns="http://www.w3.org/2000/svg">
<g clip-path="url(#clip0_1306_41658)">
<path d="M4.08333 0H2.33333C1.71449 0 1.121 0.245833 0.683418 0.683418C0.245833 1.121 0 1.71449 0 2.33333L0 4.08333C0 4.70217 0.245833 5.29566 0.683418 5.73325C1.121 6.17083 1.71449 6.41667 2.33333 6.41667H4.08333C4.70217 6.41667 5.29566 6.17083 5.73325 5.73325C6.17083 5.29566 6.41667 4.70217 6.41667 4.08333V2.33333C6.41667 1.71449 6.17083 1.121 5.73325 0.683418C5.29566 0.245833 4.70217 0 4.08333 0ZM5.25 4.08333C5.25 4.39275 5.12708 4.6895 4.90829 4.90829C4.6895 5.12708 4.39275 5.25 4.08333 5.25H2.33333C2.02391 5.25 1.72717 5.12708 1.50838 4.90829C1.28958 4.6895 1.16667 4.39275 1.16667 4.08333V2.33333C1.16667 2.02391 1.28958 1.72717 1.50838 1.50838C1.72717 1.28958 2.02391 1.16667 2.33333 1.16667H4.08333C4.39275 1.16667 4.6895 1.28958 4.90829 1.50838C5.12708 1.72717 5.25 2.02391 5.25 2.33333V4.08333Z" fill="#2368AE"/>
<path d="M11.6673 0H9.91732C9.29848 0 8.70499 0.245833 8.2674 0.683418C7.82982 1.121 7.58398 1.71449 7.58398 2.33333V4.08333C7.58398 4.70217 7.82982 5.29566 8.2674 5.73325C8.70499 6.17083 9.29848 6.41667 9.91732 6.41667H11.6673C12.2862 6.41667 12.8796 6.17083 13.3172 5.73325C13.7548 5.29566 14.0007 4.70217 14.0007 4.08333V2.33333C14.0007 1.71449 13.7548 1.121 13.3172 0.683418C12.8796 0.245833 12.2862 0 11.6673 0ZM12.834 4.08333C12.834 4.39275 12.7111 4.6895 12.4923 4.90829C12.2735 5.12708 11.9767 5.25 11.6673 5.25H9.91732C9.6079 5.25 9.31115 5.12708 9.09236 4.90829C8.87357 4.6895 8.75065 4.39275 8.75065 4.08333V2.33333C8.75065 2.02391 8.87357 1.72717 9.09236 1.50838C9.31115 1.28958 9.6079 1.16667 9.91732 1.16667H11.6673C11.9767 1.16667 12.2735 1.28958 12.4923 1.50838C12.7111 1.72717 12.834 2.02391 12.834 2.33333V4.08333Z" fill="#2368AE"/>
<path d="M4.08333 7.58398H2.33333C1.71449 7.58398 1.121 7.82982 0.683418 8.2674C0.245833 8.70499 0 9.29848 0 9.91732L0 11.6673C0 12.2862 0.245833 12.8796 0.683418 13.3172C1.121 13.7548 1.71449 14.0007 2.33333 14.0007H4.08333C4.70217 14.0007 5.29566 13.7548 5.73325 13.3172C6.17083 12.8796 6.41667 12.2862 6.41667 11.6673V9.91732C6.41667 9.29848 6.17083 8.70499 5.73325 8.2674C5.29566 7.82982 4.70217 7.58398 4.08333 7.58398ZM5.25 11.6673C5.25 11.9767 5.12708 12.2735 4.90829 12.4923C4.6895 12.7111 4.39275 12.834 4.08333 12.834H2.33333C2.02391 12.834 1.72717 12.7111 1.50838 12.4923C1.28958 12.2735 1.16667 11.9767 1.16667 11.6673V9.91732C1.16667 9.6079 1.28958 9.31115 1.50838 9.09236C1.72717 8.87357 2.02391 8.75065 2.33333 8.75065H4.08333C4.39275 8.75065 4.6895 8.87357 4.90829 9.09236C5.12708 9.31115 5.25 9.6079 5.25 9.91732V11.6673Z" fill="#2368AE"/>
<path d="M11.6673 7.58398H9.91732C9.29848 7.58398 8.70499 7.82982 8.2674 8.2674C7.82982 8.70499 7.58398 9.29848 7.58398 9.91732V11.6673C7.58398 12.2862 7.82982 12.8796 8.2674 13.3172C8.70499 13.7548 9.29848 14.0007 9.91732 14.0007H11.6673C12.2862 14.0007 12.8796 13.7548 13.3172 13.3172C13.7548 12.8796 14.0007 12.2862 14.0007 11.6673V9.91732C14.0007 9.29848 13.7548 8.70499 13.3172 8.2674C12.8796 7.82982 12.2862 7.58398 11.6673 7.58398ZM12.834 11.6673C12.834 11.9767 12.7111 12.2735 12.4923 12.4923C12.2735 12.7111 11.9767 12.834 11.6673 12.834H9.91732C9.6079 12.834 9.31115 12.7111 9.09236 12.4923C8.87357 12.2735 8.75065 11.9767 8.75065 11.6673V9.91732C8.75065 9.6079 8.87357 9.31115 9.09236 9.09236C9.31115 8.87357 9.6079 8.75065 9.91732 8.75065H11.6673C11.9767 8.75065 12.2735 8.87357 12.4923 9.09236C12.7111 9.31115 12.834 9.6079 12.834 9.91732V11.6673Z" fill="#2368AE"/>
</g>
<defs>
<clipPath id="clip0_1306_41658">
<rect width="14" height="14" fill="white"/>
</clipPath>
</defs>
</svg>
