<svg width="16" height="16" viewBox="0 0 16 16" fill="none" xmlns="http://www.w3.org/2000/svg">
<path d="M6.75853 1.0548C6.91483 0.880245 7.10618 0.740609 7.3201 0.645011C7.53402 0.549412 7.76569 0.5 8 0.5C8.23431 0.5 8.46598 0.549412 8.6799 0.645011C8.89382 0.740609 9.08517 0.880245 9.24147 1.0548L9.82471 1.70637C9.9914 1.89258 10.1978 2.03892 10.4288 2.13455C10.6597 2.23017 10.9091 2.27263 11.1587 2.25878L12.0335 2.21045C12.2675 2.19755 12.5016 2.23416 12.7205 2.31787C12.9394 2.40159 13.1382 2.53053 13.3038 2.69629C13.4695 2.86204 13.5984 3.06087 13.682 3.27981C13.7656 3.49874 13.8021 3.73285 13.7891 3.96684L13.7408 4.84087C13.727 5.09027 13.7696 5.33957 13.8652 5.57033C13.9608 5.80108 14.1071 6.00739 14.2932 6.17399L14.9447 6.75723C15.1194 6.91354 15.2592 7.10494 15.3549 7.31893C15.4505 7.53293 15.5 7.76471 15.5 7.99912C15.5 8.23353 15.4505 8.46531 15.3549 8.6793C15.2592 8.8933 15.1194 9.0847 14.9447 9.241L14.2932 9.82424C14.1069 9.99094 13.9606 10.1974 13.865 10.4283C13.7694 10.6592 13.7269 10.9087 13.7408 11.1582L13.7891 12.0331C13.802 12.2671 13.7654 12.5012 13.6817 12.72C13.5979 12.9389 13.469 13.1377 13.3032 13.3034C13.1375 13.4691 12.9387 13.5979 12.7197 13.6815C12.5008 13.7651 12.2667 13.8016 12.0327 13.7886L11.1587 13.7403C10.9093 13.7266 10.66 13.7691 10.4292 13.8647C10.1985 13.9603 9.99214 14.1066 9.82554 14.2927L9.2423 14.9443C9.086 15.119 8.8946 15.2587 8.6806 15.3544C8.4666 15.4501 8.23483 15.4995 8.00042 15.4995C7.766 15.4995 7.53423 15.4501 7.32023 15.3544C7.10623 15.2587 6.91483 15.119 6.75853 14.9443L6.17529 14.2927C6.0086 14.1065 5.80215 13.9601 5.57125 13.8645C5.34034 13.7689 5.09088 13.7264 4.84133 13.7403L3.96647 13.7886C3.73247 13.8015 3.49838 13.7649 3.27949 13.6812C3.0606 13.5975 2.86182 13.4685 2.69615 13.3028C2.53047 13.137 2.40162 12.9382 2.31801 12.7193C2.2344 12.5003 2.19791 12.2662 2.21092 12.0322L2.25925 11.1582C2.27297 10.9088 2.23045 10.6595 2.13483 10.4287C2.03921 10.198 1.89294 9.99168 1.70683 9.82508L1.05527 9.24184C0.880574 9.08553 0.74082 8.89413 0.645138 8.68014C0.549456 8.46614 0.5 8.23436 0.5 7.99995C0.5 7.76554 0.549456 7.53376 0.645138 7.31977C0.74082 7.10577 0.880574 6.91437 1.05527 6.75807L1.70683 6.17482C1.89305 6.00813 2.03939 5.80169 2.13501 5.57078C2.23063 5.33987 2.27309 5.09041 2.25925 4.84087L2.21092 3.96601C2.19814 3.73208 2.23483 3.49808 2.3186 3.27929C2.40237 3.06049 2.53134 2.86182 2.69708 2.69624C2.86282 2.53066 3.06161 2.40188 3.28048 2.31832C3.49935 2.23476 3.73339 2.19829 3.96731 2.21129L4.84133 2.25961C5.09074 2.27333 5.34004 2.23081 5.57079 2.13519C5.80155 2.03958 6.00785 1.8933 6.17446 1.7072L6.75853 1.0548Z" stroke="#2368AE"/>
<path d="M5.91992 5.91797H5.92825V5.9263H5.91992V5.91797ZM10.0859 10.084H10.0943V10.0923H10.0859V10.084Z" stroke="#2368AE" stroke-linejoin="round"/>
<path d="M10.5031 5.5L5.50391 10.4992" stroke="#2368AE" stroke-linecap="round" stroke-linejoin="round"/>
</svg>
