<svg width="19" height="18" viewBox="0 0 19 18" fill="none" xmlns="http://www.w3.org/2000/svg">
<path d="M18.272 2.48547H7.19829C6.89385 1.58565 6.03858 0.935547 5.033 0.935547C4.02742 0.935547 3.17215 1.58565 2.8677 2.48547H1.13917C0.737641 2.48547 0.412109 2.80942 0.412109 3.209C0.412109 3.60857 0.737641 3.93252 1.13917 3.93252H2.86775C3.17219 4.83233 4.02746 5.48244 5.03304 5.48244C6.03862 5.48244 6.89389 4.83233 7.19834 3.93252H18.2721C18.6736 3.93252 18.9991 3.60857 18.9991 3.209C18.9991 2.80942 18.6736 2.48547 18.272 2.48547ZM5.033 4.0354C4.57509 4.0354 4.20254 3.66467 4.20254 3.209C4.20254 2.75332 4.57509 2.38259 5.033 2.38259C5.4909 2.38259 5.86345 2.75332 5.86345 3.209C5.86345 3.66467 5.4909 4.0354 5.033 4.0354Z" fill="#2368AE"/>
<path d="M18.272 8.68469H16.5435C16.239 7.78487 15.3837 7.13477 14.3782 7.13477C13.3726 7.13477 12.5174 7.78487 12.2129 8.68469H1.13917C0.737641 8.68469 0.412109 9.00864 0.412109 9.40821C0.412109 9.80779 0.737641 10.1317 1.13917 10.1317H12.2129C12.5174 11.0316 13.3727 11.6817 14.3782 11.6817C15.3837 11.6817 16.2391 11.0316 16.5435 10.1317H18.2721C18.6736 10.1317 18.9991 9.80779 18.9991 9.40821C18.9991 9.00864 18.6736 8.68469 18.272 8.68469ZM14.3782 10.2346C13.9203 10.2346 13.5478 9.86389 13.5478 9.40821C13.5478 8.95254 13.9203 8.58181 14.3782 8.58181C14.8361 8.58181 15.2087 8.95254 15.2087 9.40821C15.2087 9.86389 14.8361 10.2346 14.3782 10.2346Z" fill="#2368AE"/>
<path d="M18.272 14.8859H10.3134C10.0089 13.986 9.15366 13.3359 8.14808 13.3359C7.1425 13.3359 6.28723 13.986 5.98279 14.8859H1.13917C0.737641 14.8859 0.412109 15.2098 0.412109 15.6094C0.412109 16.009 0.737641 16.3329 1.13917 16.3329H5.98279C6.28723 17.2327 7.1425 17.8828 8.14808 17.8828C9.15366 17.8828 10.0089 17.2327 10.3134 16.3329H18.2721C18.6736 16.3329 18.9991 16.009 18.9991 15.6094C18.9991 15.2098 18.6736 14.8859 18.272 14.8859ZM8.14808 16.4358C7.69018 16.4358 7.31763 16.0651 7.31763 15.6094C7.31763 15.1538 7.69018 14.783 8.14808 14.783C8.60599 14.783 8.97854 15.1537 8.97854 15.6094C8.97854 16.0651 8.60599 16.4358 8.14808 16.4358Z" fill="#2368AE"/>
</svg>
