<svg width="61" height="47" viewBox="0 0 61 47" fill="none" xmlns="http://www.w3.org/2000/svg">
<path d="M5.70898 9.89648V43.9469C5.70898 44.8139 6.41178 45.5167 7.27873 45.5167H53.5747C54.4417 45.5167 55.1445 44.8139 55.1445 43.9469V9.89648" stroke="#2368AE" stroke-width="1.2558"/>
<path d="M47.2687 17.6897L46.9325 17.1594L47.2687 17.6897C46.4257 18.2241 45.3254 18.2241 44.4825 17.6897C44.1853 17.5013 43.8617 17.3191 43.5504 17.1858C43.2298 17.0485 42.9697 16.984 42.7859 16.984C42.602 16.984 42.3419 17.0485 42.0214 17.1858C41.71 17.3191 41.3865 17.5013 41.0892 17.6897C40.2463 18.2241 39.146 18.2241 38.3031 17.6897C38.0058 17.5013 37.6823 17.3191 37.371 17.1858C37.0504 17.0485 36.7903 16.984 36.6064 16.984C36.4226 16.984 36.1625 17.0485 35.8419 17.1858C35.5306 17.3191 35.2071 17.5013 34.9098 17.6897C34.0669 18.2241 32.9666 18.2241 32.1236 17.6897C31.8264 17.5013 31.5029 17.3191 31.1915 17.1858C30.8709 17.0485 30.6108 16.984 30.427 16.984C30.2432 16.984 29.9831 17.0485 29.6625 17.1858C29.3511 17.3191 29.0276 17.5013 28.7304 17.6897C27.8874 18.2241 26.7871 18.2241 25.9442 17.6897C25.6469 17.5013 25.3234 17.3191 25.0121 17.1858C24.6915 17.0485 24.4314 16.984 24.2476 16.984C24.0637 16.984 23.8036 17.0485 23.483 17.1858C23.1717 17.3191 22.8482 17.5013 22.5509 17.6897C21.708 18.2241 20.6077 18.2241 19.7648 17.6897C19.4675 17.5013 19.144 17.3191 18.8326 17.1858C18.5121 17.0485 18.252 16.984 18.0681 16.984C17.8843 16.984 17.6242 17.0485 17.3036 17.1858C16.9923 17.3191 16.6687 17.5013 16.3715 17.6897C15.5286 18.2241 14.4283 18.2241 13.5853 17.6897C13.2881 17.5013 12.9645 17.3191 12.6532 17.1858C12.3326 17.0485 12.0725 16.984 11.8887 16.984C11.626 16.984 11.2359 17.113 10.779 17.3499C10.3418 17.5766 9.92005 17.861 9.61711 18.0815L9.24761 17.5738L9.61711 18.0815C9.22723 18.3653 8.74709 18.5459 8.2327 18.5459H2.66716C1.41463 18.5459 0.510926 17.3461 0.856629 16.1423L4.84466 2.25422C5.07653 1.44674 5.81509 0.890421 6.65519 0.890421H54.1988C55.0389 0.890421 55.7775 1.44675 56.0093 2.25422L59.9974 16.1423C60.3431 17.3461 59.4394 18.5459 58.1868 18.5459H52.6213C52.1069 18.5459 51.6268 18.3653 51.2369 18.0815C50.934 17.861 50.5122 17.5766 50.075 17.3499C49.6181 17.113 49.2281 16.984 48.9653 16.984C48.7815 16.984 48.5214 17.0485 48.2008 17.1858C47.8895 17.3191 47.5659 17.5013 47.2687 17.6897Z" fill="#2368AE" stroke="#2368AE" stroke-width="1.2558"/>
<path d="M16.2313 10.7468V6.44446C16.2313 5.9321 16.4799 5.72112 17.0074 5.72112C17.2635 5.72112 17.4896 5.81907 17.6252 6.04512L19.7877 9.53374H19.8028V6.31637C19.8028 5.91703 20.0288 5.72112 20.398 5.72112C20.7672 5.72112 20.9933 5.91703 20.9933 6.31637V10.5735C20.9933 11.0633 20.7823 11.3421 20.2624 11.3421C19.8706 11.3421 19.7425 11.2592 19.5843 11.0106L17.4368 7.61989H17.4218V10.7468C17.4218 11.1462 17.1957 11.3421 16.8265 11.3421C16.4573 11.3421 16.2313 11.1462 16.2313 10.7468ZM25.4036 9.48099H22.9171C22.9171 10.0612 23.2938 10.4831 23.9343 10.4831C24.7631 10.4831 24.7631 9.94062 25.2077 9.94062C25.4714 9.94062 25.6597 10.1667 25.6597 10.3701C25.6597 11.0332 24.5973 11.3421 23.9343 11.3421C22.3972 11.3421 21.817 10.3023 21.817 9.34537C21.817 8.06445 22.5931 7.20548 23.8966 7.20548C25.1624 7.20548 25.8858 8.10212 25.8858 9.0063C25.8858 9.38304 25.7728 9.48099 25.4036 9.48099ZM22.9171 8.84807H24.846C24.7857 8.34324 24.409 7.97403 23.9192 7.97403C23.3692 7.97403 23.0376 8.3131 22.9171 8.84807ZM30.2507 8.3357V10.1817C30.2507 10.6414 30.3638 10.7468 30.3638 10.9201C30.3638 11.1688 30.1302 11.3421 29.8665 11.3421C29.3918 11.3421 29.2335 11.0407 29.2185 10.7016C28.789 11.1763 28.2917 11.3421 27.7115 11.3421C27.0861 11.3421 26.4683 10.9126 26.4683 10.2194C26.4683 9.30769 27.1615 9.05151 28.0054 8.95356L28.676 8.87821C28.9397 8.84807 29.1507 8.78779 29.1507 8.47133C29.1507 8.15487 28.8267 8.01924 28.4575 8.01924C27.6437 8.01924 27.6211 8.62203 27.1841 8.62203C26.9053 8.62203 26.7169 8.42612 26.7169 8.20008C26.7169 7.76306 27.3348 7.20548 28.465 7.20548C29.5199 7.20548 30.2507 7.54455 30.2507 8.3357ZM29.1507 9.82006V9.39058C29.0301 9.5036 28.8041 9.54127 28.676 9.56388L28.2766 9.62416C27.817 9.69197 27.5683 9.83513 27.5683 10.1667C27.5683 10.4153 27.8019 10.6188 28.1787 10.6188C28.7814 10.6188 29.1507 10.2269 29.1507 9.82006ZM31.2629 10.7921V7.71785C31.2629 7.38632 31.4814 7.20548 31.7602 7.20548C32.039 7.20548 32.2575 7.38632 32.2575 7.71785V8.1398H32.2725C32.4006 7.68017 32.6493 7.20548 33.1843 7.20548C33.5309 7.20548 33.787 7.43152 33.787 7.74045C33.787 8.14733 33.5158 8.29049 33.2445 8.29049H33.0486C32.6041 8.29049 32.363 8.59942 32.363 9.51113V10.7921C32.363 11.0859 32.2424 11.3421 31.8129 11.3421C31.3834 11.3421 31.2629 11.0859 31.2629 10.7921ZM36.7097 10.5208V6.54242C36.7097 5.99238 36.996 5.81907 37.4331 5.81907H39.0757C39.9798 5.81907 41.0573 6.02251 41.0573 7.22055C41.0573 7.68017 40.8087 8.11719 40.2963 8.32063V8.3357C40.8689 8.4864 41.2457 8.89328 41.2457 9.63923C41.2457 10.777 40.3189 11.2441 39.249 11.2441H37.4331C36.996 11.2441 36.7097 11.0708 36.7097 10.5208ZM37.9454 8.833V10.2948H38.9852C39.4675 10.2948 40.01 10.1968 40.01 9.57141C40.01 8.91588 39.4373 8.833 38.8345 8.833H37.9454ZM37.9454 6.72325V8.04938H38.9626C39.5428 8.04938 39.8216 7.8158 39.8216 7.38632C39.8216 6.86641 39.3846 6.72325 38.925 6.72325H37.9454ZM42.7653 7.61989L43.4736 10.1893H43.4886L44.1592 7.69524C44.2346 7.41646 44.3853 7.20548 44.6867 7.20548C45.1237 7.20548 45.2518 7.56715 45.2518 7.70278C45.2518 7.7932 45.2216 7.90622 45.1689 8.04938L43.8955 11.6586C43.6318 12.412 43.3304 12.8038 42.6372 12.8038C42.1474 12.8038 41.944 12.5627 41.944 12.299C41.944 12.0052 42.155 11.8545 42.4488 11.8545H42.5619C42.705 11.8545 42.8633 11.8469 42.9461 11.5079L41.8008 8.24528C41.7104 7.98157 41.6652 7.86101 41.6652 7.73292C41.6652 7.43152 41.9063 7.20548 42.2002 7.20548C42.494 7.20548 42.6975 7.37125 42.7653 7.61989Z" fill="white"/>
<path d="M15.8165 28.8158L17.9232 29.2925C20.2299 29.8153 20.8143 31.184 20.8143 32.4757C20.8143 34.4748 19.3073 35.9665 16.2624 35.9665C13.0638 35.9665 11.6337 34.3672 11.6337 33.1677C11.6337 32.5526 12.0796 32.122 12.6947 32.122C14.0634 32.122 13.7097 34.1211 16.2624 34.1211C17.5696 34.1211 18.2923 33.3984 18.2923 32.6602C18.2923 32.2143 18.077 31.7222 17.2159 31.5069L14.3709 30.7841C12.0796 30.1998 11.6644 28.9388 11.6644 27.7547C11.6644 25.2942 13.9404 24.3715 16.0779 24.3715C18.0463 24.3715 20.3683 25.4787 20.3683 26.955C20.3683 27.5855 19.8301 27.9546 19.215 27.9546C18.0463 27.9546 18.2616 26.3091 15.9087 26.3091C14.74 26.3091 14.0941 26.8474 14.0941 27.6163C14.0941 28.3852 15.0168 28.6312 15.8165 28.8158ZM22.3763 34.7824V25.5556C22.3763 24.8175 22.8222 24.433 23.4988 24.433C24.1755 24.433 24.6214 24.8175 24.6214 25.5556V28.6466H24.6522C25.0981 28.0622 25.8824 27.4625 27.1588 27.4625C28.5121 27.4625 29.9883 28.1391 29.9883 30.4151V34.7824C29.9883 35.3821 29.7423 35.905 28.8658 35.905C27.9892 35.905 27.7432 35.3821 27.7432 34.7824V30.861C27.7432 29.9537 27.2972 29.3078 26.3284 29.3078C25.5441 29.3078 24.6214 29.9537 24.6214 31.0763V34.7824C24.6214 35.3821 24.3754 35.905 23.4988 35.905C22.6223 35.905 22.3763 35.3821 22.3763 34.7824Z" fill="#2368AE"/>
<path d="M41.3626 37.7657V28.5236C41.3626 27.8316 41.6856 27.4625 42.3776 27.4625C43.0388 27.4625 43.3925 27.8316 43.3925 28.5236V28.8773H43.4233C43.7923 27.9238 44.6996 27.4625 45.7915 27.4625C47.6676 27.4625 49.313 28.8311 49.313 31.7376C49.313 33.8905 48.2212 35.905 45.853 35.905C44.8227 35.905 44.0538 35.4898 43.6386 34.767H43.6078V37.7657C43.6078 38.5039 43.1618 38.8883 42.4852 38.8883C41.8086 38.8883 41.3626 38.5039 41.3626 37.7657ZM47.0678 31.6607C47.0678 30.3382 46.4835 29.2463 45.284 29.2156C43.9769 29.2156 43.4848 30.3843 43.4848 31.6607C43.4848 32.814 43.9154 34.1673 45.284 34.1519C46.7142 34.1519 47.0678 32.7064 47.0678 31.6607Z" fill="#2368AE"/>
<path d="M33.7461 34.4668L31.6143 37.6641" stroke="#007FFF" stroke-width="2.02653" stroke-linecap="round"/>
<path d="M39.1261 31.642C39.1261 33.5447 37.5837 35.0871 35.681 35.0871C33.7783 35.0871 32.2359 33.5447 32.2359 31.642C32.2359 29.7393 33.7783 28.1969 35.681 28.1969C37.5837 28.1969 39.1261 29.7393 39.1261 31.642Z" stroke="#2368AE" stroke-width="2.02653"/>
</svg>
