<svg width="14" height="14" viewBox="0 0 14 14" fill="none" xmlns="http://www.w3.org/2000/svg">
<path d="M12.25 3.49935H2.91667C2.41558 3.49935 1.94133 3.28235 1.61292 2.9166C1.93375 2.55843 2.39983 2.33268 2.91667 2.33268H13.4167C13.7392 2.33268 14 2.07135 14 1.74935C14 1.42735 13.7392 1.16602 13.4167 1.16602H2.91667C1.30608 1.16602 0 2.4721 0 4.08268V9.91602C0 11.5266 1.30608 12.8327 2.91667 12.8327H12.25C13.2166 12.8327 14 12.0493 14 11.0827V5.24935C14 4.28277 13.2166 3.49935 12.25 3.49935ZM12.8333 11.0827C12.8333 11.4041 12.572 11.666 12.25 11.666H2.91667C1.95183 11.666 1.16667 10.8808 1.16667 9.91602V4.08152C1.66483 4.45427 2.27733 4.66602 2.91667 4.66602H12.25C12.572 4.66602 12.8333 4.92793 12.8333 5.24935V11.0827ZM11.6667 8.16602C11.6667 8.48802 11.4053 8.74935 11.0833 8.74935C10.7613 8.74935 10.5 8.48802 10.5 8.16602C10.5 7.84402 10.7613 7.58268 11.0833 7.58268C11.4053 7.58268 11.6667 7.84402 11.6667 8.16602Z" fill="#2368AE"/>
</svg>
