<svg width="14" height="14" viewBox="0 0 14 14" fill="none" xmlns="http://www.w3.org/2000/svg">
<path d="M7.7 0C7.93975 0 8.16988 0.098875 8.33525 0.273L11.1353 3.2725C11.2892 3.43525 11.375 3.65137 11.375 3.87537V11.375C11.375 11.6071 11.2828 11.8296 11.1187 11.9937C10.9546 12.1578 10.7321 12.25 10.5 12.25H1.75C1.51794 12.25 1.29538 12.1578 1.13128 11.9937C0.967187 11.8296 0.875 11.6071 0.875 11.375V0.875C0.875 0.642936 0.967187 0.420376 1.13128 0.256282C1.29538 0.0921872 1.51794 0 1.75 0L7.7 0ZM10.5 4.375H7.4375C7.32147 4.375 7.21019 4.32891 7.12814 4.24686C7.04609 4.16481 7 4.05353 7 3.9375V0.875H1.75V11.375H10.5V4.375ZM3.9375 9.625C3.82147 9.625 3.71019 9.57891 3.62814 9.49686C3.54609 9.41481 3.5 9.30353 3.5 9.1875C3.5 9.07147 3.54609 8.96019 3.62814 8.87814C3.71019 8.79609 3.82147 8.75 3.9375 8.75H8.3125C8.42853 8.75 8.53981 8.79609 8.62186 8.87814C8.70391 8.96019 8.75 9.07147 8.75 9.1875C8.75 9.30353 8.70391 9.41481 8.62186 9.49686C8.53981 9.57891 8.42853 9.625 8.3125 9.625H3.9375ZM3.9375 7C3.82147 7 3.71019 6.95391 3.62814 6.87186C3.54609 6.78981 3.5 6.67853 3.5 6.5625C3.5 6.44647 3.54609 6.33519 3.62814 6.25314C3.71019 6.17109 3.82147 6.125 3.9375 6.125H8.3125C8.42853 6.125 8.53981 6.17109 8.62186 6.25314C8.70391 6.33519 8.75 6.44647 8.75 6.5625C8.75 6.67853 8.70391 6.78981 8.62186 6.87186C8.53981 6.95391 8.42853 7 8.3125 7H3.9375ZM4.8125 14C4.69647 14 4.58519 13.9539 4.50314 13.8719C4.42109 13.7898 4.375 13.6785 4.375 13.5625C4.375 13.4465 4.42109 13.3352 4.50314 13.2531C4.58519 13.1711 4.69647 13.125 4.8125 13.125H12.25V5.6875C12.25 5.57147 12.2961 5.46019 12.3781 5.37814C12.4602 5.29609 12.5715 5.25 12.6875 5.25C12.8035 5.25 12.9148 5.29609 12.9969 5.37814C13.0789 5.46019 13.125 5.57147 13.125 5.6875V13.125C13.125 13.3571 13.0328 13.5796 12.8687 13.7437C12.7046 13.9078 12.4821 14 12.25 14H4.8125Z" fill="#2368AE"/>
</svg>
