<svg width="14" height="14" viewBox="0 0 14 14" fill="none" xmlns="http://www.w3.org/2000/svg">
<g clip-path="url(#clip0_1306_41711)">
<path d="M14.0006 3.50057V9.62557H13.1256V3.50057H8.31307C8.05786 3.50057 7.85278 3.52108 7.69784 3.56209C7.54289 3.60311 7.41073 3.6578 7.30135 3.72616C7.19198 3.79451 7.09855 3.86515 7.02108 3.93807C6.9436 4.01099 6.85929 4.08162 6.76815 4.14998C6.677 4.21834 6.56307 4.27075 6.42635 4.30721C6.28963 4.34367 6.11646 4.36645 5.90682 4.37557H0.87557V10.5006H7.00057V11.3756H0.87557C0.752523 11.3756 0.638591 11.3528 0.533773 11.3072C0.428955 11.2616 0.337809 11.2001 0.260335 11.1226C0.182861 11.0452 0.119059 10.9517 0.068929 10.8424C0.0187988 10.733 -0.00398763 10.6191 0.000569662 10.5006V1.75057C0.000569662 1.62752 0.0233561 1.51359 0.068929 1.40877C0.114502 1.30396 0.176025 1.21281 0.253499 1.13534C0.330973 1.05786 0.424398 0.994059 0.533773 0.943929C0.643148 0.893799 0.75708 0.871012 0.87557 0.87557H5.90682C6.07544 0.87557 6.23267 0.905192 6.3785 0.964437C6.52433 1.02368 6.65649 1.10571 6.77498 1.21053C6.89347 1.31535 7.00513 1.43156 7.10995 1.55916C7.21476 1.68677 7.30363 1.82121 7.37655 1.96248C7.43579 2.0673 7.49276 2.16073 7.54745 2.24276C7.60213 2.32479 7.66594 2.39315 7.73885 2.44784C7.81177 2.50252 7.89152 2.54582 7.97811 2.57772C8.0647 2.60962 8.17635 2.62557 8.31307 2.62557H13.1256C13.2486 2.62557 13.3625 2.64836 13.4674 2.69393C13.5722 2.7395 13.6633 2.80103 13.7408 2.8785C13.8183 2.95597 13.8821 3.0494 13.9322 3.15877C13.9823 3.26815 14.0051 3.38208 14.0006 3.50057ZM5.90682 3.50057C6.02987 3.50057 6.13241 3.48006 6.21444 3.43905C6.29647 3.39803 6.37622 3.3479 6.45369 3.28866C6.53117 3.22941 6.60864 3.16561 6.68612 3.09725C6.76359 3.02889 6.85246 2.96509 6.95272 2.90584C6.88436 2.82837 6.81372 2.72583 6.7408 2.59823C6.66789 2.47062 6.58586 2.34302 6.49471 2.21541C6.40356 2.08781 6.31242 1.97843 6.22127 1.88729C6.13013 1.79614 6.02531 1.75057 5.90682 1.75057H0.87557V3.50057H5.90682ZM14.0006 12.2506C14.0006 12.4921 13.955 12.7177 13.8639 12.9273C13.7727 13.137 13.6474 13.3238 13.4879 13.4879C13.3284 13.6519 13.1438 13.7773 12.9342 13.8639C12.7245 13.9504 12.4967 13.996 12.2506 14.0006V13.1256C12.3736 13.1256 12.4875 13.1028 12.5924 13.0572C12.6972 13.0116 12.7883 12.9501 12.8658 12.8726C12.9433 12.7952 13.0071 12.7017 13.0572 12.5924C13.1073 12.483 13.1301 12.3691 13.1256 12.2506C13.1256 12.1275 13.1028 12.0136 13.0572 11.9088C13.0116 11.804 12.9501 11.7128 12.8726 11.6353C12.7952 11.5579 12.7017 11.4941 12.5924 11.4439C12.483 11.3938 12.3691 11.371 12.2506 11.3756H10.2476L11.3551 12.4898L10.7398 13.1051L8.57284 10.9381L10.7398 8.77108L11.3551 9.38631L10.2476 10.5006H12.2506C12.4921 10.5006 12.7177 10.5461 12.9273 10.6373C13.137 10.7284 13.3238 10.8538 13.4879 11.0133C13.6519 11.1728 13.7773 11.3573 13.8639 11.567C13.9504 11.7766 13.996 12.0045 14.0006 12.2506Z" fill="#2368AE"/>
</g>
<defs>
<clipPath id="clip0_1306_41711">
<rect width="14" height="14" fill="white"/>
</clipPath>
</defs>
</svg>
