<svg width="18" height="18" viewBox="0 0 18 18" fill="none" xmlns="http://www.w3.org/2000/svg">
<path fill-rule="evenodd" clip-rule="evenodd" d="M12.5006 11.5905H11.7106L11.4306 11.3205C12.6306 9.92047 13.2506 8.01047 12.9106 5.98047C12.4406 3.20047 10.1206 0.980469 7.32063 0.640469C3.09063 0.120469 -0.469374 3.68047 0.0506256 7.91047C0.390626 10.7105 2.61063 13.0305 5.39063 13.5005C7.42063 13.8405 9.33063 13.2205 10.7306 12.0205L11.0006 12.3005V13.0905L15.2506 17.3405C15.6606 17.7505 16.3306 17.7505 16.7406 17.3405C17.1506 16.9305 17.1506 16.2605 16.7406 15.8505L12.5006 11.5905ZM6.50063 11.5905C4.01063 11.5905 2.00063 9.58047 2.00063 7.09047C2.00063 4.60047 4.01063 2.59047 6.50063 2.59047C8.99063 2.59047 11.0006 4.60047 11.0006 7.09047C11.0006 9.58047 8.99063 11.5905 6.50063 11.5905Z" fill="#C3CAD9"/>
</svg>
