<svg width="27" height="27" viewBox="0 0 27 27" fill="none" xmlns="http://www.w3.org/2000/svg">
<path d="M24.9691 26.5162L15.8183 17.3654C15.092 17.9464 14.2568 18.4064 13.3127 18.7453C12.3685 19.0842 11.3639 19.2537 10.2987 19.2537C7.66 19.2537 5.42677 18.3398 3.59903 16.5121C1.77129 14.6843 0.857422 12.4511 0.857422 9.8124C0.857422 7.17367 1.77129 4.94044 3.59903 3.1127C5.42677 1.28496 7.66 0.371094 10.2987 0.371094C12.9374 0.371094 15.1707 1.28496 16.9984 3.1127C18.8262 4.94044 19.74 7.17367 19.74 9.8124C19.74 10.8776 19.5706 11.8822 19.2316 12.8263C18.8927 13.7705 18.4328 14.6057 17.8518 15.3319L27.0026 24.4827L24.9691 26.5162ZM10.2987 16.3487C12.1144 16.3487 13.6576 15.7132 14.9286 14.4423C16.1995 13.1713 16.835 11.628 16.835 9.8124C16.835 7.99676 16.1995 6.45347 14.9286 5.18253C13.6576 3.91158 12.1144 3.27611 10.2987 3.27611C8.48309 3.27611 6.9398 3.91158 5.66885 5.18253C4.39791 6.45347 3.76244 7.99676 3.76244 9.8124C3.76244 11.628 4.39791 13.1713 5.66885 14.4423C6.9398 15.7132 8.48309 16.3487 10.2987 16.3487Z" fill="#2368AE"/>
</svg>
