<svg width="24" height="25" viewBox="0 0 24 25" fill="none" xmlns="http://www.w3.org/2000/svg">
<path d="M9 12.1855C9 12.8486 8.73661 13.4845 8.26777 13.9533C7.79893 14.4222 7.16304 14.6855 6.5 14.6855C5.83696 14.6855 5.20107 14.4222 4.73223 13.9533C4.26339 13.4845 4 12.8486 4 12.1855C4 11.5225 4.26339 10.8866 4.73223 10.4178C5.20107 9.94894 5.83696 9.68555 6.5 9.68555C7.16304 9.68555 7.79893 9.94894 8.26777 10.4178C8.73661 10.8866 9 11.5225 9 12.1855Z" stroke="#2368AE" stroke-width="1.5"/>
<path d="M14 6.68555L9 10.1855M14 17.6855L9 14.1855" stroke="#2368AE" stroke-width="1.5" stroke-linecap="round"/>
<path d="M19 18.6855C19 19.3486 18.7366 19.9845 18.2678 20.4533C17.7989 20.9222 17.163 21.1855 16.5 21.1855C15.837 21.1855 15.2011 20.9222 14.7322 20.4533C14.2634 19.9845 14 19.3486 14 18.6855C14 18.0225 14.2634 17.3866 14.7322 16.9178C15.2011 16.4489 15.837 16.1855 16.5 16.1855C17.163 16.1855 17.7989 16.4489 18.2678 16.9178C18.7366 17.3866 19 18.0225 19 18.6855ZM19 5.68555C19 6.34859 18.7366 6.98447 18.2678 7.45331C17.7989 7.92215 17.163 8.18555 16.5 8.18555C15.837 8.18555 15.2011 7.92215 14.7322 7.45331C14.2634 6.98447 14 6.34859 14 5.68555C14 5.02251 14.2634 4.38662 14.7322 3.91778C15.2011 3.44894 15.837 3.18555 16.5 3.18555C17.163 3.18555 17.7989 3.44894 18.2678 3.91778C18.7366 4.38662 19 5.02251 19 5.68555Z" stroke="#2368AE" stroke-width="1.5"/>
</svg>
