<svg width="24" height="25" viewBox="0 0 24 25" fill="none" xmlns="http://www.w3.org/2000/svg">
<path d="M16 21.1855V19.1855C16 18.1247 15.5786 17.1073 14.8284 16.3571C14.0783 15.607 13.0609 15.1855 12 15.1855H6C4.93913 15.1855 3.92172 15.607 3.17157 16.3571C2.42143 17.1073 2 18.1247 2 19.1855V21.1855" stroke="black" stroke-width="2" stroke-linecap="round" stroke-linejoin="round"/>
<path d="M9 11.1855C11.2091 11.1855 13 9.39469 13 7.18555C13 4.97641 11.2091 3.18555 9 3.18555C6.79086 3.18555 5 4.97641 5 7.18555C5 9.39469 6.79086 11.1855 9 11.1855Z" stroke="black" stroke-width="2" stroke-linecap="round" stroke-linejoin="round"/>
<path d="M22 21.1864V19.1864C21.9993 18.3001 21.7044 17.4392 21.1614 16.7387C20.6184 16.0383 19.8581 15.538 19 15.3164M16 3.31641C16.8604 3.53671 17.623 4.03711 18.1676 4.73872C18.7122 5.44033 19.0078 6.30324 19.0078 7.19141C19.0078 8.07958 18.7122 8.94249 18.1676 9.6441C17.623 10.3457 16.8604 10.8461 16 11.0664" stroke="black" stroke-width="2" stroke-linecap="round" stroke-linejoin="round"/>
</svg>
