<svg width="14" height="15" viewBox="0 0 14 15" fill="none" xmlns="http://www.w3.org/2000/svg">
<g clip-path="url(#clip0_1462_45021)">
<path d="M4.375 8.08333C3.85582 8.08333 3.34831 7.92938 2.91663 7.64094C2.48495 7.3525 2.1485 6.94253 1.94982 6.46288C1.75114 5.98322 1.69915 5.45542 1.80044 4.94622C1.90172 4.43702 2.15173 3.96929 2.51884 3.60218C2.88596 3.23507 3.35369 2.98506 3.86289 2.88377C4.37209 2.78249 4.89989 2.83447 5.37954 3.03315C5.8592 3.23183 6.26917 3.56828 6.55761 3.99996C6.84605 4.43164 7 4.93916 7 5.45833C6.99923 6.15429 6.72242 6.82152 6.2303 7.31364C5.73819 7.80575 5.07096 8.08256 4.375 8.08333ZM4.375 4C4.08657 4 3.80462 4.08553 3.56479 4.24577C3.32497 4.40602 3.13805 4.63378 3.02768 4.90025C2.9173 5.16673 2.88842 5.45995 2.94469 5.74284C3.00096 6.02573 3.13985 6.28558 3.3438 6.48953C3.54775 6.69348 3.8076 6.83238 4.09049 6.88865C4.37338 6.94492 4.6666 6.91604 4.93308 6.80566C5.19956 6.69528 5.42732 6.50836 5.58756 6.26854C5.7478 6.02872 5.83333 5.74677 5.83333 5.45833C5.83333 5.07156 5.67969 4.70063 5.4062 4.42714C5.13271 4.15365 4.76177 4 4.375 4ZM8.75 13.9167V13.625C8.75 12.4647 8.28906 11.3519 7.46859 10.5314C6.64812 9.71094 5.53532 9.25 4.375 9.25C3.21468 9.25 2.10188 9.71094 1.28141 10.5314C0.460936 11.3519 0 12.4647 0 13.625L0 13.9167C0 14.0714 0.0614582 14.2198 0.170854 14.3291C0.280251 14.4385 0.428624 14.5 0.583333 14.5C0.738043 14.5 0.886416 14.4385 0.995812 14.3291C1.10521 14.2198 1.16667 14.0714 1.16667 13.9167V13.625C1.16667 12.7741 1.50469 11.958 2.10637 11.3564C2.70805 10.7547 3.5241 10.4167 4.375 10.4167C5.2259 10.4167 6.04195 10.7547 6.64363 11.3564C7.24531 11.958 7.58333 12.7741 7.58333 13.625V13.9167C7.58333 14.0714 7.64479 14.2198 7.75419 14.3291C7.86358 14.4385 8.01196 14.5 8.16667 14.5C8.32138 14.5 8.46975 14.4385 8.57915 14.3291C8.68854 14.2198 8.75 14.0714 8.75 13.9167ZM14 11C14 10.2117 13.7718 9.44032 13.343 8.77888C12.9142 8.11744 12.3031 7.59426 11.5835 7.27248C10.8639 6.95071 10.0665 6.84409 9.28769 6.96551C8.50883 7.08694 7.78176 7.4312 7.19425 7.95675C7.13636 8.00762 7.08913 8.06945 7.05528 8.13867C7.02142 8.2079 7.00162 8.28315 6.99701 8.36007C6.99241 8.43699 7.00309 8.51406 7.02843 8.58683C7.05378 8.6596 7.0933 8.72663 7.1447 8.78404C7.1961 8.84146 7.25837 8.88811 7.3279 8.92132C7.39744 8.95453 7.47287 8.97364 7.54983 8.97753C7.62679 8.98143 7.70376 8.97003 7.77629 8.94401C7.84883 8.91799 7.91548 8.87785 7.97242 8.82592C8.3921 8.45061 8.91143 8.2048 9.46774 8.11814C10.024 8.03148 10.5935 8.10768 11.1075 8.33755C11.6214 8.56742 12.0579 8.94113 12.3641 9.41357C12.6704 9.88601 12.8333 10.437 12.8333 11C12.8333 11.1547 12.8948 11.3031 13.0042 11.4125C13.1136 11.5219 13.262 11.5833 13.4167 11.5833C13.5714 11.5833 13.7197 11.5219 13.8291 11.4125C13.9385 11.3031 14 11.1547 14 11ZM10.2083 5.75C9.68916 5.75 9.18164 5.59605 8.74996 5.30761C8.31828 5.01917 7.98183 4.6092 7.78315 4.12955C7.58447 3.64989 7.53249 3.12209 7.63377 2.61289C7.73506 2.10369 7.98506 1.63596 8.35218 1.26885C8.71929 0.901733 9.18702 0.651726 9.69622 0.55044C10.2054 0.449154 10.7332 0.501137 11.2129 0.699817C11.6925 0.898497 12.1025 1.23495 12.3909 1.66663C12.6794 2.09831 12.8333 2.60583 12.8333 3.125C12.8326 3.82096 12.5558 4.48819 12.0636 4.9803C11.5715 5.47242 10.9043 5.74923 10.2083 5.75ZM10.2083 1.66667C9.9199 1.66667 9.63795 1.7522 9.39813 1.91244C9.15831 2.07269 8.97139 2.30045 8.86101 2.56692C8.75063 2.8334 8.72175 3.12662 8.77802 3.40951C8.83429 3.6924 8.97318 3.95225 9.17714 4.1562C9.38109 4.36015 9.64094 4.49904 9.92383 4.55531C10.2067 4.61158 10.4999 4.5827 10.7664 4.47233C11.0329 4.36195 11.2606 4.17503 11.4209 3.93521C11.5811 3.69539 11.6667 3.41343 11.6667 3.125C11.6667 2.73823 11.513 2.36729 11.2395 2.0938C10.966 1.82031 10.5951 1.66667 10.2083 1.66667Z" fill="#2368AE"/>
</g>
<defs>
<clipPath id="clip0_1462_45021">
<rect width="14" height="14" fill="white" transform="translate(0 0.5)"/>
</clipPath>
</defs>
</svg>
