<svg width="24" height="25" viewBox="0 0 24 25" fill="none" xmlns="http://www.w3.org/2000/svg">
<path d="M12 24.8691C5.3736 24.8691 0 19.4955 0 12.8691C0 6.24274 5.3736 0.869141 12 0.869141C18.6264 0.869141 24 6.24274 24 12.8691C24 19.4955 18.6264 24.8691 12 24.8691Z" fill="#FF0000"/>
<path d="M19.6361 9.00635C19.4537 8.31515 18.9137 7.77275 18.2273 7.58795C16.984 7.25195 12.0017 7.25195 12.0017 7.25195C12.0017 7.25195 7.01685 7.25195 5.77605 7.58795C5.08965 7.77275 4.54965 8.31515 4.36725 9.00635C4.03125 10.2568 4.03125 12.868 4.03125 12.868C4.03125 12.868 4.03125 15.4792 4.36485 16.7296C4.54725 17.4208 5.08725 17.9632 5.77365 18.148C7.01685 18.484 11.9992 18.484 11.9992 18.484C11.9992 18.484 16.9841 18.484 18.2249 18.148C18.9113 17.9632 19.4512 17.4208 19.6336 16.7296C19.9672 15.4792 19.9672 12.868 19.9672 12.868C19.9672 12.868 19.9673 10.2568 19.6361 9.00635ZM10.3697 15.2368V10.4992L14.5336 12.868L10.3697 15.2368Z" fill="white"/>
</svg>
